<?xml version="1.0" encoding="UTF-8" standalone="no"?>
<svg
   viewBox="0 0 1024 1024"
   version="1.1"
   id="svg16"
   sodipodi:docname="icon_background.svg"
   inkscape:export-filename="icon_background.png"
   inkscape:export-xdpi="48"
   inkscape:export-ydpi="48"
   inkscape:version="1.3.2 (091e20e, 2023-11-25, custom)"
   xmlns:inkscape="http://www.inkscape.org/namespaces/inkscape"
   xmlns:sodipodi="http://sodipodi.sourceforge.net/DTD/sodipodi-0.dtd"
   xmlns:xlink="http://www.w3.org/1999/xlink"
   xmlns="http://www.w3.org/2000/svg"
   xmlns:svg="http://www.w3.org/2000/svg"
   xmlns:bx="https://boxy-svg.com">
  <sodipodi:namedview
     id="namedview16"
     pagecolor="#ffffff"
     bordercolor="#000000"
     borderopacity="0.25"
     inkscape:showpageshadow="2"
     inkscape:pageopacity="0.0"
     inkscape:pagecheckerboard="0"
     inkscape:deskcolor="#d1d1d1"
     inkscape:zoom="0.67431641"
     inkscape:cx="474.55467"
     inkscape:cy="549.44533"
     inkscape:window-width="1877"
     inkscape:window-height="1091"
     inkscape:window-x="1152"
     inkscape:window-y="241"
     inkscape:window-maximized="0"
     inkscape:current-layer="svg16" />
  <defs
     id="defs12">
    <filter
       id="shadow"
       bx:pinned="true"
       x="0"
       y="0"
       width="1"
       height="1">
      <title
         id="title1">Drop Shadow</title>
      <feDropShadow
         result="drop-shadow-0"
         in="SourceGraphic"
         style="flood-opacity: 0.3;"
         stdDeviation="10"
         dx="0"
         dy="10" />
    </filter>
    <bx:guide
       x="-10"
       y="100"
       angle="90" />
    <bx:guide
       x="100"
       y="-10"
       angle="0" />
    <bx:guide
       x="924"
       y="-10"
       angle="0" />
    <bx:guide
       x="-10"
       y="924"
       angle="90" />
    <clipPath
       id="clip-0">
      <path
         style="stroke-width: 3px; fill: rgb(255, 255, 255);"
         d="M 100 724 L 100 300 C 100 185.001 170 99.995 300.026 100 L 724 99.995 C 854 100 924 185.001 924 300 L 924 724 C 924 839.001 854 923.995 724 924 L 300.026 924 C 170 924 100 839.001 100 724 Z"
         id="path2">
        <title
           id="title2">Icon Mask</title>
      </path>
    </clipPath>
    <symbol
       id="symbol-0"
       viewBox="0 0 1024 1024"
       bx:pinned="true">
      <title
         id="title3">App Icon Guides</title>
      <g
         style=""
         transform="matrix(1, 0, 0, 1, 0, 0)"
         id="g12">
        <title
           id="title4">App Icon Guides</title>
        <path
           style="fill: none; stroke: rgb(145, 145, 145); stroke-width: 3px;"
           d="M 0 739.001 L 0 285.001 C 0 135.001 112 0 284.999 0 L 739.001 0 C 912 0 1024 135.001 1024 285.001 L 1024 739.001 C 1024 889.001 912 1024 739.001 1024 L 284.999 1024 C 112 1024 0 889.001 0 739.001 Z"
           id="path5">
          <title
             id="title5">Outer Bounding Box</title>
        </path>
        <path
           style="stroke: rgb(145, 145, 145); fill: none; stroke-width: 3px;"
           d="M 50 739.001 L 50 285.001 C 50 162 140 50 284.999 50 L 739.001 50 C 884.001 50 974 162 974 285.001 L 974 739.001 C 974 862 884.001 974 739.001 974 L 284.999 974 C 140 974 50 862 50 739.001 Z"
           id="path6">
          <title
             id="title6">Inner Bounding Box</title>
        </path>
        <path
           style="fill: none; stroke: rgb(255, 0, 0); stroke-width: 3px;"
           d="M 100 724.005 L 100 300.005 C 100 185.006 170 100 300.026 100.005 L 724 100 C 854 100.005 924 185.006 924 300.005 L 924 724.005 C 924 839.006 854 924 724 924.005 L 300.026 924.005 C 170 924.005 100 839.006 100 724.005 Z"
           id="path7">
          <title
             id="title7">Icon Grid Bounding Box</title>
        </path>
        <path
           style="fill: none; stroke: rgb(255, 0, 0);"
           d="M 154.017 870.001 L 870.001 870.001 L 870.001 154.014 L 154.017 154.014 L 154.017 870.001 Z M 154.017 870.001 L 870.001 154.014 L 154.017 870.001 Z M 100 511.995 L 924 511.995 L 100 511.995 Z M 100 669.36 L 924 669.36 L 100 669.36 Z M 924 354.631 L 100 354.631 L 924 354.631 Z M 669.365 99.995 L 669.365 923.995 L 669.365 99.995 Z M 354.635 923.995 L 354.635 99.995 L 354.635 923.995 Z M 512 99.995 L 512 923.995 L 512 99.995 Z M 154.017 154.014 L 870.001 870.001 L 154.017 154.014 Z"
           id="path8">
          <title
             id="title8">Icon Grid</title>
        </path>
        <circle
           style="fill: none; stroke: rgba(255, 0, 0, 0.6);"
           cx="512"
           cy="511.995"
           r="157.397"
           id="circle9">
          <title
             id="title9">Grid Circle 1</title>
        </circle>
        <circle
           style="fill: none; stroke: rgba(255, 0, 0, 0.6);"
           cx="512"
           cy="511.995"
           r="222.577"
           id="circle10">
          <title
             id="title10">Grid Circle 2</title>
        </circle>
        <circle
           style="fill: none; stroke: rgba(255, 0, 0, 0.6);"
           cx="512"
           cy="511.995"
           r="358.001"
           id="circle11">
          <title
             id="title11">Grid Circle 3</title>
        </circle>
        <path
           d="M 1084.343 548.001 L 143.343 548.001 C 114.624 548.001 91.343 524.72 91.343 496.001 C 91.343 467.282 114.624 444.001 143.343 444.001 L 1084.343 444.001 C 1113.062 444.001 1136.343 467.282 1136.343 496.001 C 1136.343 524.72 1113.062 548.001 1084.343 548.001 Z M 1136.3 496.039 L 91.3 495.961"
           style="stroke-width: 5px; fill: rgba(0, 195, 255, 0.37); stroke: rgb(0, 119, 255); stroke-dasharray: 24, 10;"
           transform="matrix(0.430444, -0.902617, 0.902617, 0.430444, -98.093403, 836.54613)"
           id="path12">
          <title
             id="title12">Tool Angle</title>
        </path>
      </g>
    </symbol>
  </defs>
  <g
     style="display:none;filter:url(#shadow)"
     id="g16">
    <title
       id="title13">App Icon (w/ Shadow)</title>
    <g
       clip-path="url(#clip-0)"
       id="g15">
      <title
         id="title14">Background (Masked)</title>
      <path
         style="fill:#ffffff;stroke-width:3px"
         d="M 100,724 V 300 C 100,185.001 170,99.995 300.026,100 L 724,99.995 C 854,100 924,185.001 924,300 v 424 c 0,115.001 -70,199.995 -200,200 H 300.026 C 170,924 100,839.001 100,724 Z"
         id="path15">
        <title
           id="title15">Icon Shape</title>
      </path>
    </g>
    <rect
       x="683.90002"
       y="337.289"
       width="619.79901"
       height="80.511002"
       style="fill:#aebbbb"
       transform="rotate(-64.5042,804.46409,588.45425)"
       id="rect15" />
  </g>
  <use
     width="1024"
     height="1024"
     style="display:none"
     xlink:href="#symbol-0"
     id="use16">
    <title
       id="title16">App Icon Guides</title>
  </use>
  <rect
     style="fill:#121212;fill-opacity:1"
     id="rect16"
     width="920"
     height="920"
     x="52"
     y="52"
     ry="225.41347"
     inkscape:export-filename=".\rect16.png"
     inkscape:export-xdpi="53.426086"
     inkscape:export-ydpi="53.426086" />
  <g
     id="g24305"
     transform="matrix(8.7548727,-8.7548727,8.7548727,8.7548727,-554.45903,596.20797)">
    <path
       id="path888-6-5"
       style="fill:#ecb33c;fill-opacity:1;stroke:none;stroke-width:2.05861;stroke-linejoin:round"
       d="m 90.697703,78.205975 h -12.764 v 0 L 90.697,56.097755 77.933705,33.989535 v 0 h 12.763999 l 12.763596,22.1085 z" />
    <path
       id="path888-6-4"
       style="fill:#efbc53;fill-opacity:1;stroke:none;stroke-width:1.87236;stroke-linejoin:round"
       d="M 77.08818,76.2055 H 65.478991 v 0 l 11.60855,-20.108 -11.608548,-20.108 v 0 H 77.088181 L 88.697,56.097755 Z" />
    <path
       id="path888-6-9"
       style="fill:#f0c56a;fill-opacity:1;stroke:none;stroke-width:1.68616;stroke-linejoin:round"
       d="M 64.633208,74.205549 H 54.178541 v 0 L 64.632631,56.097271 54.178543,37.988993 v 0 H 64.633209 L 75.087541,56.0975 Z" />
    <path
       style="fill:#f4cd81;fill-opacity:1;stroke-width:2;stroke-linejoin:round"
       id="path23605"
       d="m -1.7754078,55.969184 12.7643598,-22.107481 25.527821,5.19e-4 12.76346,22.108001 -12.76436,22.107482 -25.52782,-5.2e-4 z"
       transform="matrix(0.728605,0,0,0.728605,26.727217,15.317086)" />
  </g>
</svg>
